<svg id="Layer_1" data-name="Layer 1" xmlns="http://www.w3.org/2000/svg" viewBox="0 0 494.31 103.68"><defs><style>.cls-1{fill:#231f20;}</style></defs><title>fontshare logo</title><path class="cls-1" d="M7.62,16.65H49.7V27.59H20.92V47.67H47.69V58.51H20.92V89.42H7.62Z"/><path class="cls-1" d="M109,62.62c0,19.33-13.56,28-27,28-14.83,0-26.31-10.23-26.31-27.08,0-17.24,11.36-27.86,27.2-27.86C98.57,35.67,109,46.69,109,62.62Zm-39.65.58c0,10.11,5,17.75,13.07,17.75C90.08,81,95.38,73.6,95.38,63c0-8.26-3.66-17.69-12.83-17.69C73.22,45.33,69.39,54.43,69.39,63.2Z"/><path class="cls-1" d="M120,52.49c0-6.07-.19-11.08-.43-15.63h11.61l.66,7.89h.31a19.12,19.12,0,0,1,16.75-9.08c9.16,0,18.68,5.9,18.68,22.53V89.42h-13.3V59.77c0-7.55-2.77-13.29-10-13.29a11,11,0,0,0-10.34,7.8,12.94,12.94,0,0,0-.61,4.21V89.42H120Z"/><path class="cls-1" d="M196.43,21.81V36.86h12.65v9.9H196.43V70c0,6.43,1.71,9.7,6.8,9.7a20.06,20.06,0,0,0,5.16-.58l.27,10.11A29.73,29.73,0,0,1,199,90.56c-4.89,0-9-1.67-11.43-4.34-2.85-3-4.15-7.85-4.15-14.74V46.76h-7.5v-9.9h7.5V25Z"/><path class="cls-1" d="M218.48,77.2A29.27,29.27,0,0,0,231.89,81c5.85,0,8.46-2.45,8.46-5.9s-2.16-5.36-8.63-7.66c-10.29-3.52-14.57-9.12-14.53-15.35,0-9.24,7.69-16.45,19.95-16.45a30.33,30.33,0,0,1,13.94,3.14l-2.63,9.33a23.92,23.92,0,0,0-11.12-3c-4.73,0-7.36,2.33-7.36,5.56s2.53,4.94,9.17,7.37c9.57,3.38,14,8.26,14,16,0,9.58-7.47,16.5-21.35,16.5a34,34,0,0,1-16-3.69Z"/><path class="cls-1" d="M264.15,12.76h13.3V44h.22a19,19,0,0,1,15.69-8.36c8.93,0,18.37,5.93,18.37,22.8v31h-13.3V59.93c0-7.62-2.75-13.42-10.1-13.42A11,11,0,0,0,278,54a11.24,11.24,0,0,0-.58,4V89.42h-13.3Z"/><path class="cls-1" d="M355.48,89.42l-.91-5.85h-.32c-3.19,4.14-8.69,7-15.49,7-10.67,0-16.57-7.62-16.57-15.63,0-13.27,11.82-20,31.18-19.91v-.86c0-3.46-1.37-9.2-10.68-9.17A28,28,0,0,0,328.56,49l-2.63-8.62c4-2.42,10.78-4.67,19.05-4.67,16.86,0,21.67,10.63,21.67,22.16V76.76a78.6,78.6,0,0,0,.82,12.66Zm-1.76-25.74c-9.38-.13-18.35,1.85-18.35,9.86,0,5.14,3.38,7.57,7.58,7.57a10.83,10.83,0,0,0,10.4-7.28,10.19,10.19,0,0,0,.37-2.89Z"/><path class="cls-1" d="M380.75,53.76c0-7-.14-12.22-.43-16.9h11.51l.49,10h.38c2.59-7.41,8.71-11.18,14.39-11.18a12.64,12.64,0,0,1,3.12.29V48.48a18,18,0,0,0-3.9-.38c-6.33,0-10.73,4-11.92,10.06a22.27,22.27,0,0,0-.34,4V89.42h-13.3Z"/><path class="cls-1" d="M427.59,66.82c.35,9.52,7.72,13.69,16.23,13.69a40,40,0,0,0,14.51-2.44l2,9.15a47.53,47.53,0,0,1-18.37,3.34c-17.06,0-27.06-10.55-27.06-26.65,0-14.51,8.8-28.24,25.71-28.24,17.09,0,22.65,14,22.65,25.57a28.08,28.08,0,0,1-.47,5.58Zm23.11-9.27c.06-4.86-2.06-12.81-11-12.81-8.18,0-11.58,7.44-12.17,12.81Z"/><path class="cls-1" d="M461.37,16h-4.75V13.4h12.59V16h-4.8V30h-3Z"/><path class="cls-1" d="M486.35,23.25c-.1-2.15-.21-4.73-.2-7h-.07c-.54,2-1.24,4.29-2,6.39l-2.44,7.2h-2.34l-2.21-7.1c-.65-2.13-1.24-4.4-1.68-6.49h-.05c-.07,2.18-.17,4.84-.3,7.1L474.73,30H471.9L473,13.4h4l2.16,6.68c.6,2,1.13,3.94,1.53,5.8h.08c.44-1.82,1-3.85,1.66-5.81l2.31-6.67h3.94l1,16.64h-3Z"/></svg>